<svg id="SvgjsSvg1001" width="288" height="288" xmlns="http://www.w3.org/2000/svg" version="1.1" xmlns:xlink="http://www.w3.org/1999/xlink" xmlns:svgjs="http://svgjs.com/svgjs"><defs id="SvgjsDefs1002"></defs><g id="SvgjsG1008" transform="matrix(0.9167,0,0,0.9167,11.99528436641694,11.995199682235722)"><!--?xml version="1.0" encoding="UTF-8"?-->
<svg xmlns="http://www.w3.org/2000/svg" xmlns:xlink="http://www.w3.org/1999/xlink" version="1.1" id="Facebook" x="0px" y="0px" width="288" height="288" viewBox="0 0 144.083 144" enable-background="new 0 0 144.083 144" xml:space="preserve">
<path d="M72.041,14.165c-31.94,0-57.833,25.894-57.833,57.834c0,31.939,25.893,57.836,57.833,57.836s57.835-25.896,57.835-57.836  C129.875,40.059,103.981,14.165,72.041,14.165z M91.792,51.16c0,0.552-0.447,1-1,1H76.713v7.567h14.078c0.553,0,1,0.448,1,1v14.077  c0,0.553-0.447,1-1,1H77.713v30.892c0,0.553-0.447,1-1,1H63.408c-0.553,0-1-0.447-1-1V75.805h-9.117c-0.553,0-1-0.447-1-1V60.728  c0-0.552,0.447-1,1-1h9.117V54.02c0-0.082,0.01-0.161,0.028-0.237c0.008-8.131,1.747-17.433,15.068-17.475  c0.029-0.002,0.06-0.004,0.09-0.004h13.197c0.553,0,1,0.448,1,1V51.16z" fill="#83d7c9" class="color000 svgShape"></path>

	
	
	
	<metadata>
		<rdf:rdf xmlns:rdf="http://www.w3.org/1999/02/22-rdf-syntax-ns#" xmlns:rdfs="http://www.w3.org/2000/01/rdf-schema#" xmlns:dc="http://purl.org/dc/elements/1.1/">
			<rdf:description about="https://iconscout.com/legal#licenses" dc:title="Facebook" dc:description="Facebook" dc:publisher="Iconscout" dc:date="2017-03-22" dc:format="image/svg+xml" dc:language="en">
				<dc:creator>
					<rdf:bag>
						<rdf:li>
					</rdf:li></rdf:bag>
				</dc:creator>
			</rdf:description>
		</rdf:rdf>
    </metadata></svg>
</g></svg>