<svg id="SvgjsSvg1001" width="288" height="288" xmlns="http://www.w3.org/2000/svg" version="1.1" xmlns:xlink="http://www.w3.org/1999/xlink" xmlns:svgjs="http://svgjs.com/svgjs"><defs id="SvgjsDefs1002"></defs><g id="SvgjsG1008" transform="matrix(0.9167,0,0,0.9167,11.995199523353591,11.995199523353591)"><!--?xml version="1.0" encoding="UTF-8" standalone="no"?--><svg xmlns="http://www.w3.org/2000/svg" width="288" height="288" viewBox="0 0 1792 1792"><path d="M1376 128q119 0 203.5 84.5t84.5 203.5v960q0 119-84.5 203.5t-203.5 84.5h-188v-595h199l30-232h-229v-148q0-56 23.5-84t91.5-28l122-1v-207q-63-9-178-9-136 0-217.5 80t-81.5 226v171h-200v232h200v595h-532q-119 0-203.5-84.5t-84.5-203.5v-960q0-119 84.5-203.5t203.5-84.5h960z" fill="#a8efe3" class="color000 svgShape"></path>
	
	<metadata>
		<rdf:rdf xmlns:rdf="http://www.w3.org/1999/02/22-rdf-syntax-ns#" xmlns:rdfs="http://www.w3.org/2000/01/rdf-schema#" xmlns:dc="http://purl.org/dc/elements/1.1/">
			<rdf:description about="https://iconscout.com/legal#licenses" dc:title="Facebook, Social, Media, Fb, Logo, Square" dc:description="Facebook, Social, Media, Fb, Logo, Square" dc:publisher="Iconscout" dc:date="2016-12-14" dc:format="image/svg+xml" dc:language="en">
				<dc:creator>
					<rdf:bag>
						<rdf:li>Font Awesome</rdf:li>
					</rdf:bag>
				</dc:creator>
			</rdf:description>
		</rdf:rdf>
    </metadata></svg>
</g></svg>