<svg id="SvgjsSvg1001" width="288" height="288" xmlns="http://www.w3.org/2000/svg" version="1.1" xmlns:xlink="http://www.w3.org/1999/xlink" xmlns:svgjs="http://svgjs.com/svgjs"><defs id="SvgjsDefs1002"></defs><g id="SvgjsG1008" transform="matrix(0.9167,0,0,0.9167,11.995200079441076,11.995199781537053)"><!--?xml version="1.0" encoding="UTF-8" standalone="no"?--><svg xmlns="http://www.w3.org/2000/svg" id="Layer_1" data-name="Layer 1" viewBox="0 0 128 128" width="288" height="288"><title>Artboard 46</title><path d="M84,36H44a8,8,0,0,0-8,8V84a8,8,0,0,0,8,8H84a8,8,0,0,0,8-8V44A8,8,0,0,0,84,36ZM64,80A16,16,0,1,1,80,64,16,16,0,0,1,64,80ZM82,51a5,5,0,1,1,5-5A5,5,0,0,1,82,51Z" fill="#a8efe3" class="color000 svgShape"></path><circle cx="64" cy="64" r="8" fill="#a8efe3" class="color000 svgShape"></circle><path d="M111.16,25.23,74,3.77a20,20,0,0,0-20,0L16.84,25.23a20,20,0,0,0-10,17.32V85.45a20,20,0,0,0,10,17.32L54,124.23a20,20,0,0,0,20,0l37.16-21.45a20,20,0,0,0,10-17.32V42.55A20,20,0,0,0,111.16,25.23ZM100,84a16,16,0,0,1-16,16H44A16,16,0,0,1,28,84V44A16,16,0,0,1,44,28H84a16,16,0,0,1,16,16Z" fill="#a8efe3" class="color000 svgShape"></path>
	<metadata>
		<rdf:rdf xmlns:rdf="http://www.w3.org/1999/02/22-rdf-syntax-ns#" xmlns:rdfs="http://www.w3.org/2000/01/rdf-schema#" xmlns:dc="http://purl.org/dc/elements/1.1/">
			<rdf:description about="https://iconscout.com/legal#licenses" dc:title="yumminky-social-media-46" dc:description="yumminky-social-media-46" dc:publisher="Iconscout" dc:date="2017-05-12" dc:format="image/svg+xml" dc:language="en">
				<dc:creator>
					<rdf:bag>
						<rdf:li>Juraj Sedlák</rdf:li>
					</rdf:bag>
				</dc:creator>
			</rdf:description>
		</rdf:rdf>
    </metadata></svg>
</g></svg>