<?xml version="1.0" encoding="UTF-8" standalone="no"?>
<svg
   xmlns:dc="http://purl.org/dc/elements/1.1/"
   xmlns:cc="http://creativecommons.org/ns#"
   xmlns:rdf="http://www.w3.org/1999/02/22-rdf-syntax-ns#"
   xmlns:svg="http://www.w3.org/2000/svg"
   xmlns="http://www.w3.org/2000/svg"
   version="1.1"
   viewBox="0 0 1000 1000"
   data-name="Layer 1"
   id="Layer_1">
  <metadata
     id="metadata2010">
    <rdf:RDF>
      <cc:Work
         rdf:about="">
        <dc:format>image/svg+xml</dc:format>
        <dc:type
           rdf:resource="http://purl.org/dc/dcmitype/StillImage" />
        <dc:title>panteesvg</dc:title>
      </cc:Work>
    </rdf:RDF>
  </metadata>
  <defs
     id="defs1553">
    <style
       id="style1548">.cls-1{fill:#405bbc;}.cls-2{fill:#3256ba;}.cls-3{fill:#00b5d3;}.cls-4{fill:#0b3e68;}.cls-5{fill:#fff;}.cls-6{fill:#007ed3;}.cls-7{clip-path:url(#clip-path);}</style>
    <clipPath
       id="clip-path">
      <path
         id="path1550"
         d="M522.89,725a219.67,219.67,0,1,1,155.33-64.34A218.23,218.23,0,0,1,522.89,725Zm0-425c-113.23,0-205.34,92.11-205.34,205.34s92.11,205.34,205.34,205.34,205.34-92.11,205.34-205.34S636.12,300,522.89,300Z"
         class="cls-1" />
    </clipPath>
  </defs>
  <title
     id="title1555">panteesvg</title>
  <g
     transform="translate(-60.339779,16.970563)"
     id="g2581">
    <g
       transform="matrix(4.2912029,0,0,3.7949916,-1645.4492,-1304.588)"
       id="g2604">
      <path
         style="fill:#00b5d3"
         id="path1589"
         d="m 549.35,456.18 -7.44,0.2 v 0 l -3.42,0.1 A 37.91,37.91 0 0 1 519,483.39 c -0.88,0.48 -1.77,0.92 -2.71,1.33 l -0.3,0.13 a 37.65,37.65 0 0 1 -18,2.93 c -1,-0.08 -2,-0.2 -3,-0.37 a 38.29,38.29 0 0 1 -14.56,-5.55 c -0.85,-0.54 -1.67,-1.12 -2.47,-1.73 a 37.7,37.7 0 0 1 -9.31,-10.22 c -0.21,-0.35 -0.42,-0.7 -0.62,-1.05 l -0.11,-0.19 c -0.46,-0.82 -0.9,-1.65 -1.29,-2.48 a 2,2 0 0 0 -0.1,-0.21 37.73,37.73 0 0 1 -3.53,-14.57 c 0,-1 0,-2 0,-3 a 38.23,38.23 0 0 1 3.76,-15 c 0.44,-0.91 0.91,-1.8 1.42,-2.66 a 37.66,37.66 0 0 1 12.89,-13.2 c 0.74,-0.46 1.5,-0.89 2.28,-1.3 l 0.35,-0.18 a 38,38 0 0 1 33.33,-0.61 l 2,-2.71 v -0.07 l 4.07,-5.66 a 3.08,3.08 0 0 0 -1.3,-4.61 51.91,51.91 0 1 0 30.23,56.94 2.65,2.65 0 0 0 -2.68,-3.17 z"
         class="cls-3" />
      <path
         style="fill:#405bbc"
         id="path1591"
         d="m 532.77,456.12 a 2.67,2.67 0 0 0 -2.65,2 29.91,29.91 0 0 1 -13.4,18.26 30.86,30.86 0 1 1 -30.78,-53.38 29.81,29.81 0 0 1 24.56,-1.81 3.09,3.09 0 0 0 3.66,-1.15 l 4.85,-7.3 v -0.07 c -11.84,-6.23 -25.6,-6.3 -38.33,0.37 a 42.11,42.11 0 0 0 39.08,74.6 c 12.73,-6.67 20.49,-17.92 22.11,-31.21 v 0 z"
         class="cls-1" />
      <path
         style="fill:#00b5d3"
         id="path1593"
         d="m 596.32,443.5 h -96.53 a 2.22,2.22 0 0 0 -1.44,0.53 2.19,2.19 0 0 0 -0.78,1.68 V 453 a 2.23,2.23 0 0 0 2.22,2.21 h 84.51 a 0.11,0.11 0 0 1 0.11,0.1 V 557 a 3.11,3.11 0 0 1 -0.85,2.13 v 0 a 3,3 0 0 1 -1.17,0.75 121.19,121.19 0 0 1 -20.22,5.29 l -0.93,0.15 c -0.57,0.1 -1.14,0.17 -1.7,0.25 -1.35,0.19 -2.67,0.34 -4,0.45 -0.63,0.07 -1.25,0.12 -1.87,0.17 h -0.09 l -1.82,0.1 -1.57,0.06 h -0.32 c -12.46,0.28 -21.59,-2.53 -28.08,-5.65 l -0.21,-0.11 a 61.76,61.76 0 0 1 -8.68,-5.2 7,7 0 0 0 -0.95,-0.56 v 0 a 7,7 0 0 0 -4,-0.7 h -0.12 a 6.42,6.42 0 0 0 -2.67,1.05 6.15,6.15 0 0 0 -1.2,1.06 2.78,2.78 0 0 0 -0.21,0.27 6.23,6.23 0 0 0 -0.74,1.17 1.42,1.42 0 0 0 -0.12,0.25 6.57,6.57 0 0 0 0.78,6.6 v 0 a 6.82,6.82 0 0 0 1.07,1.08 74.73,74.73 0 0 0 16.18,10.17 l 0.23,0.1 a 62.92,62.92 0 0 0 8.94,3.27 l 0.28,0.07 c 34.29,9.49 64.16,-14.09 70.07,-19.16 a 3.07,3.07 0 0 0 1,-2.32 V 448.68 a 5.18,5.18 0 0 0 -5.12,-5.18 z m -4.67,12.15 a 3.48,3.48 0 1 1 3.48,-3.48 3.47,3.47 0 0 1 -3.48,3.48 z"
         class="cls-3" />
      <path
         style="fill:#00b5d3"
         id="path1595"
         d="m 541.3,477.88 -6.69,-3.27 v 0 l -3.07,-1.5 a 38,38 0 0 1 -29.73,14.82 c -1,0 -2,0 -3,-0.09 h -0.33 a 37.6,37.6 0 0 1 -17.31,-5.76 c -0.86,-0.54 -1.68,-1.11 -2.48,-1.72 a 38.32,38.32 0 0 1 -10.31,-11.67 c -0.51,-0.88 -1,-1.77 -1.4,-2.68 a 37.44,37.44 0 0 1 -3.49,-13.37 c 0,-0.41 -0.05,-0.82 -0.07,-1.22 0,-0.07 0,-0.15 0,-0.23 0,-0.94 0,-1.87 0,-2.79 0,-0.07 0,-0.15 0,-0.23 a 37.57,37.57 0 0 1 3.64,-14.54 c 0.42,-0.92 0.89,-1.81 1.39,-2.67 a 38.32,38.32 0 0 1 10.32,-11.59 c 0.8,-0.6 1.63,-1.17 2.48,-1.7 a 37.8,37.8 0 0 1 17.55,-5.71 c 0.87,-0.06 1.74,-0.09 2.62,-0.09 h 0.39 a 37.9,37.9 0 0 1 29.81,14.93 l 3,-1.5 h 0.06 l 6.23,-3.13 a 3.09,3.09 0 0 0 1,-4.69 51.91,51.91 0 1 0 0.35,64.48 2.67,2.67 0 0 0 -0.96,-4.08 z"
         class="cls-3" />
      <path
         style="fill:#405bbc"
         id="path1597"
         d="m 526.64,470.14 a 2.67,2.67 0 0 0 -3.29,0.56 29.88,29.88 0 0 1 -20.35,9.95 30.86,30.86 0 1 1 -2.45,-61.65 29.81,29.81 0 0 1 22.59,9.8 3.09,3.09 0 0 0 3.78,0.67 l 7.69,-4.21 h 0.06 c -7.6,-11 -19.75,-17.47 -34.12,-17.47 a 42.11,42.11 0 0 0 0,84.22 c 14.37,0 26.47,-6.36 34.06,-17.38 v 0 z"
         class="cls-1" />
      <path
         style="fill:#0b3e68"
         id="path1599"
         d="m 512.72,469.41 a 1.47,1.47 0 0 1 -1,-0.63 L 486.41,432 a 1.5131507,1.5131507 0 1 1 2.49,-1.72 l 25.33,36.74 a 1.52,1.52 0 0 1 -0.39,2.11 1.46,1.46 0 0 1 -1.12,0.28 z"
         class="cls-4" />
      <path
         style="fill:#0b3e68"
         id="path1601"
         d="m 485,430.19 0.45,5.2 a 1.92,1.92 0 0 0 3,1.4 l 4.27,-3 a 1.91,1.91 0 0 0 -0.28,-3.3 l -4.73,-2.2 a 1.91,1.91 0 0 0 -2.71,1.9 z"
         class="cls-4" />
      <rect
         style="fill:#ffffff"
         id="rect1603"
         rx="1.17"
         height="8.6700001"
         width="3.02"
         y="408.79999"
         x="498.79001"
         class="cls-5" />
      <rect
         style="fill:#ffffff"
         id="rect1605"
         transform="rotate(-32.38,480.66903,419.5022)"
         rx="1.17"
         height="8.6700001"
         width="3.02"
         y="415.14001"
         x="479.12"
         class="cls-5" />
      <rect
         style="fill:#ffffff"
         id="rect1607"
         transform="rotate(-61.8,468.70217,432.76422)"
         rx="1.17"
         height="8.6700001"
         width="3.02"
         y="428.42999"
         x="467.17001"
         class="cls-5" />
      <rect
         style="fill:#ffffff"
         id="rect1609"
         transform="rotate(-90,464.345,449.885)"
         rx="1.17"
         height="8.6700001"
         width="3.02"
         y="445.54999"
         x="462.84"
         class="cls-5" />
      <rect
         style="fill:#ffffff"
         id="rect1611"
         rx="1.17"
         height="8.6700001"
         width="3.02"
         y="482.06"
         x="498.79001"
         class="cls-5" />
      <rect
         style="fill:#ffffff"
         id="rect1613"
         transform="rotate(32.38,480.63983,480.09765)"
         rx="1.17"
         height="8.6700001"
         width="3.02"
         y="475.72"
         x="479.12"
         class="cls-5" />
      <rect
         style="fill:#ffffff"
         id="rect1615"
         transform="rotate(61.8,468.68466,466.80021)"
         rx="1.17"
         height="8.6700001"
         width="3.02"
         y="462.44"
         x="467.17001"
         class="cls-5" />
      <rect
         style="fill:#ffffff"
         id="rect1617"
         transform="rotate(90,464.345,449.655)"
         rx="1.17"
         height="8.6700001"
         width="3.02"
         y="445.32001"
         x="462.84"
         class="cls-5" />
      <circle
         style="fill:#0b3e68"
         id="circle1619"
         r="2.22"
         cy="449.54999"
         cx="500.29999"
         class="cls-4" />
      <path
         style="fill:#0b3e68"
         id="path1621"
         d="m 500.34,446.92 v 0 a 2.62,2.62 0 0 0 -2.45,1.71 2.55,2.55 0 0 0 -0.17,0.92 2.63,2.63 0 0 0 2.61,2.62 v 0 a 2.62,2.62 0 0 0 2.47,-1.73 2.38,2.38 0 0 0 0.16,-0.89 2.63,2.63 0 0 0 -2.62,-2.63 z m 1.78,2.63 a 1.82,1.82 0 0 1 -1.83,1.81 1.78,1.78 0 0 1 -0.65,-0.12 1.82,1.82 0 0 1 -1.16,-1.68 v 0 a 1.82,1.82 0 0 1 1.81,-1.82 1.7,1.7 0 0 1 0.71,0.14 1.84,1.84 0 0 1 1.12,1.62 z"
         class="cls-4" />
      <path
         style="fill:#00b5d3"
         id="path1623"
         d="m 556.71,502.22 -16.16,-6.6 a 3.5,3.5 0 0 0 -3.5,0.45 59,59 0 0 1 -80.47,-85.59 l 0.4,-0.44 a 59.57,59.57 0 0 1 12.14,-10.35 l 0.2,-0.13 a 58.81,58.81 0 0 1 62.32,-0.54 c 0.63,0.38 1.26,0.78 1.86,1.18 l 0.41,0.26 v 0 a 3.38,3.38 0 0 0 1.68,0.47 H 536 l 0.32,-0.05 0.32,-0.07 0.35,-0.1 0.33,-0.14 7.82,-3.84 0.38,-0.19 7.47,-3.67 a 3.3,3.3 0 0 0 1,-0.74 v 0 a 0.8,0.8 0 0 0 0.15,-0.15 3.57,3.57 0 0 0 0.81,-1.79 v 0 a 3.59,3.59 0 0 0 -1.24,-3.27 c -0.25,-0.22 -0.52,-0.44 -0.78,-0.65 v 0 c -0.43,-0.36 -0.86,-0.7 -1.29,-1 l -0.2,-0.15 c -0.28,-0.23 -0.57,-0.46 -0.86,-0.67 a 0.58,0.58 0 0 1 -0.12,-0.1 81.78,81.78 0 0 0 -70.22,-14.06 h -0.08 a 81.22,81.22 0 0 0 -11.87,4.13 v 0 a 81.81,81.81 0 1 0 89.64,133.71 3.59,3.59 0 0 0 -1.22,-5.91 z"
         class="cls-3" />
      <path
         style="fill:#405bbc"
         id="path1625"
         d="m 554,392.14 c 0,0 3.33,-2.8 -2.36,-6.93 -5.69,-4.13 -33.11,-31.43 -83.37,-10.81 0,0 -25.46,23 -18,44.07 0,0 29.59,-47.68 81.39,-19.46 l 2.27,1.45 a 3.32,3.32 0 0 0 3.11,0.23 C 539,400 554,392.14 554,392.14 Z"
         class="cls-1" />
      <path
         style="fill:#405bbc"
         id="path1627"
         d="m 512,554.86 c 0,0 -5.17,-2.47 -8.21,1.68 -3.04,4.15 -1,7.1 0,8.11 1,1.01 13.79,11.54 26.63,14.63 13.3,2.14 45,-6.29 53.2,-20.17 a 99.06,99.06 0 0 1 -32.37,7.23 C 533.76,567 520,561.07 512,554.86 Z"
         class="cls-1" />
      <path
         style="fill:#007ed3"
         id="path1629"
         d="m 591.65,454.67 a 2.5,2.5 0 1 1 2.5,-2.5 2.5,2.5 0 0 1 -2.5,2.5 z m 0,-4.05 a 1.55,1.55 0 1 0 1.55,1.55 1.56,1.56 0 0 0 -1.55,-1.55 z"
         class="cls-6" />
    </g>
  </g>
</svg>
