<svg id="SvgjsSvg1001" width="288" height="288" xmlns="http://www.w3.org/2000/svg" version="1.1" xmlns:xlink="http://www.w3.org/1999/xlink" xmlns:svgjs="http://svgjs.com/svgjs"><defs id="SvgjsDefs1002"></defs><g id="SvgjsG1008" transform="matrix(0.9167,0,0,0.9167,11.995574326324459,11.995200000000011)"><!--?xml version="1.0" encoding="UTF-8"?--><svg xmlns="http://www.w3.org/2000/svg" xmlns:xlink="http://www.w3.org/1999/xlink" version="1.1" x="0px" y="0px" viewBox="0 0 32 32" xml:space="preserve" width="288" height="288"><path d="M16 0C8.974 0 3.278 5.696 3.278 12.722c0 5.666 3.706 10.462 8.825 12.108L16 32l3.898-7.169c5.119-1.647 8.825-6.443 8.825-12.108C28.722 5.696 23.026 0 16 0zm1.3 16.281c-1.045 0-2.028-.565-2.365-1.207 0 0-.562 2.23-.681 2.661-.419 1.521-1.652 3.043-1.748 3.168-.067.087-.214.059-.23-.055-.027-.194-.341-2.113.029-3.679l1.245-5.275s-.309-.618-.309-1.531c0-1.435.831-2.506 1.867-2.506.88 0 1.305.661 1.305 1.453 0 .886-.563 2.209-.854 3.435-.243 1.027.515 1.865 1.528 1.865 1.834 0 3.069-2.356 3.069-5.147 0-2.121-1.428-3.71-4.028-3.71-2.936 0-4.766 2.19-4.766 4.636 0 .844.249 1.439.639 1.898.178.212.204.297.139.54-.047.178-.153.607-.198.777-.064.246-.263.333-.484.242-1.352-.552-1.982-2.034-1.982-3.698 0-2.749 2.319-6.047 6.919-6.047 3.696 0 6.128 2.674 6.128 5.545 0 3.797-2.111 6.635-5.223 6.635z" id="GLYPH" fill="#83d7c9" class="color000 svgShape"></path><metadata><rdf:rdf xmlns:rdf="http://www.w3.org/1999/02/22-rdf-syntax-ns#" xmlns:rdfs="http://www.w3.org/2000/01/rdf-schema#" xmlns:dc="http://purl.org/dc/elements/1.1/"><rdf:description about="https://iconscout.com/legal#licenses" dc:title="pinterest,social,pin" dc:description="pinterest,social,pin" dc:publisher="Iconscout" dc:date="2017-09-15" dc:format="image/svg+xml" dc:language="en"><dc:creator><rdf:bag><rdf:li>Epicflaticon by Alfredo</rdf:li></rdf:bag></dc:creator></rdf:description></rdf:rdf></metadata></svg></g></svg>