<?xml version="1.0" encoding="UTF-8"?><!DOCTYPE svg PUBLIC "-//W3C//DTD SVG 1.1//EN" "http://www.w3.org/Graphics/SVG/1.1/DTD/svg11.dtd"><svg xmlns="http://www.w3.org/2000/svg" xmlns:xlink="http://www.w3.org/1999/xlink" version="1.1" id="Layer_1" x="0px" y="0px" width="72px" height="72px" viewBox="0 0 72 72" xml:space="preserve"><path d="M49.83 56.5H22.17c-3.927 0-5.965-2.426-5.965-5.899V22.94c0-3.513 2.147-7.44 5.965-7.44h27.66c3.817 0 7.375 3.928 7.375 7.44V50.6c0 3.474-3.448 5.9-7.375 5.9zm-27.66-37c-1.298 0-1.965 1.769-1.965 3.44V50.6c0 1.652.968 1.899 1.965 1.899h27.66c.997 0 3.375-.247 3.375-1.899V22.94c0-1.672-2.077-3.44-3.375-3.44H22.17z"/><path d="M37.5 24.5h-1a1 1 0 1 1 0-2h1a1 1 0 1 1 0 2z"/><path d="M23.205 32.5a1 1 0 0 1-1-1v-2.325c0-3.281-.705-6.675 4.857-6.675H32.5a1 1 0 1 1 0 2h-5.438c-3.563 0-2.857 1.178-2.857 4.675V31.5a1 1 0 0 1-1 1z"/><path d="M67.5 23.5h-5a2 2 0 0 1 0-4h5a2 2 0 0 1 0 4z"/><path d="M67.5 34.5h-5a2 2 0 0 1 0-4h5a2 2 0 0 1 0 4z"/><path d="M67.5 44.5h-5a2 2 0 0 1 0-4h5a2 2 0 0 1 0 4z"/><path d="M67.5 53.5h-5a2 2 0 0 1 0-4h5a2 2 0 0 1 0 4z"/><g><path d="M21.205 12.5a2 2 0 0 1-2-2v-5a2 2 0 0 1 4 0v5a2 2 0 0 1-2 2z"/><path d="M31.205 12.5a2 2 0 0 1-2-2v-5a2 2 0 0 1 4 0v5a2 2 0 0 1-2 2z"/><path d="M42.205 12.5a2 2 0 0 1-2-2v-5a2 2 0 0 1 4 0v5a2 2 0 0 1-2 2z"/><path d="M51.205 12.5a2 2 0 0 1-2-2v-5a2 2 0 0 1 4 0v5a2 2 0 0 1-2 2z"/></g><g><path d="M21.205 68.5a2 2 0 0 1-2-2v-5a2 2 0 0 1 4 0v5a2 2 0 0 1-2 2z"/><path d="M31.205 68.5a2 2 0 0 1-2-2v-5a2 2 0 0 1 4 0v5a2 2 0 0 1-2 2z"/><path d="M42.205 68.5a2 2 0 0 1-2-2v-5a2 2 0 0 1 4 0v5a2 2 0 0 1-2 2z"/><path d="M51.205 68.5a2 2 0 0 1-2-2v-5a2 2 0 0 1 4 0v5a2 2 0 0 1-2 2z"/></g><g><path d="M9.5 23.5h-5a2 2 0 0 1 0-4h5a2 2 0 0 1 0 4z"/><path d="M9.5 34.5h-5a2 2 0 0 1 0-4h5a2 2 0 0 1 0 4z"/><path d="M9.5 44.5h-5a2 2 0 0 1 0-4h5a2 2 0 0 1 0 4z"/><path d="M9.5 53.5h-5a2 2 0 0 1 0-4h5a2 2 0 0 1 0 4z"/></g><metadata><rdf:RDF xmlns:rdf="http://www.w3.org/1999/02/22-rdf-syntax-ns#" xmlns:rdfs="http://www.w3.org/2000/01/rdf-schema#" xmlns:dc="http://purl.org/dc/elements/1.1/"><rdf:Description about="https://iconscout.com/legal#licenses" dc:title="processor" dc:description="processor" dc:publisher="Iconscout" dc:date="2017-09-14" dc:format="image/svg+xml" dc:language="en"><dc:creator><rdf:Bag><rdf:li>Taras Shypka</rdf:li></rdf:Bag></dc:creator></rdf:Description></rdf:RDF></metadata></svg>