<svg xmlns="http://www.w3.org/2000/svg" viewBox="0 0 32 32"><g data-name="Layer 2"><path d="M23.88,30.75H19.13a1.88,1.88,0,0,1-1.87-1.87V28a1.25,1.25,0,0,0-2.5,0v.88a1.88,1.88,0,0,1-1.87,1.88H8.13a1.88,1.88,0,0,1-1.87-1.87V3.13A1.88,1.88,0,0,1,8.13,1.25h4.75a1.88,1.88,0,0,1,1.88,1.88V4a1.25,1.25,0,0,0,2.5,0V3.13a1.88,1.88,0,0,1,1.88-1.87h4.75a1.88,1.88,0,0,1,1.88,1.88V28.88A1.88,1.88,0,0,1,23.88,30.75ZM16,25.25A2.75,2.75,0,0,1,18.75,28v.88a.38.38,0,0,0,.38.38h4.75a.38.38,0,0,0,.38-.37V3.13a.38.38,0,0,0-.37-.37H19.13a.38.38,0,0,0-.37.38V4a2.75,2.75,0,0,1-5.5,0V3.13a.38.38,0,0,0-.37-.37H8.13a.38.38,0,0,0-.37.38V28.88a.38.38,0,0,0,.38.38h4.75a.38.38,0,0,0,.38-.37V28A2.75,2.75,0,0,1,16,25.25Z"/><rect width="10" height="1.5" x="11" y="9.56" rx=".75" ry=".75"/><rect width="10" height="1.5" x="11" y="20.94" rx=".75" ry=".75"/><rect width="10" height="1.5" x="11" y="15.25" rx=".75" ry=".75"/></g></svg>