<?xml version="1.0" encoding="UTF-8" standalone="no"?>
<svg
   xmlns:dc="http://purl.org/dc/elements/1.1/"
   xmlns:cc="http://creativecommons.org/ns#"
   xmlns:rdf="http://www.w3.org/1999/02/22-rdf-syntax-ns#"
   xmlns:svg="http://www.w3.org/2000/svg"
   xmlns="http://www.w3.org/2000/svg"
   xmlns:xlink="http://www.w3.org/1999/xlink"
   width="500.70078"
   height="500.51968"
   viewBox="0 0 132.47708 132.42917"
   version="1.1"
   id="svg8">
  <defs
     id="defs2">
    <linearGradient
       id="linearGradient7637">
      <stop
         id="stop7633"
         offset="0"
         style="stop-color:#e6c6da;stop-opacity:1;" />
      <stop
         id="stop7635"
         offset="1"
         style="stop-color:#e6c6da;stop-opacity:0;" />
    </linearGradient>
    <linearGradient
       id="linearGradient7576-0">
      <stop
         id="stop7572"
         offset="0"
         style="stop-color:#26c6da;stop-opacity:1;" />
      <stop
         id="stop7574"
         offset="1"
         style="stop-color:#26c6da;stop-opacity:0;" />
    </linearGradient>
    <linearGradient
       id="linearGradient7568-2-1-3">
      <stop
         id="stop7564"
         offset="0"
         style="stop-color:#020106;stop-opacity:1;" />
      <stop
         id="stop7566"
         offset="1"
         style="stop-color:#020106;stop-opacity:0;" />
    </linearGradient>
    <linearGradient
       gradientTransform="translate(0.15840809,1.584081)"
       gradientUnits="userSpaceOnUse"
       y2="232.0218"
       x2="88.37075"
       y1="188.49045"
       x1="31.840027"
       id="linearGradient7578"
       xlink:href="#linearGradient7576-0" />
    <linearGradient
       gradientTransform="translate(0.15840809,1.584081)"
       y2="230.86461"
       x2="122.37111"
       y1="230.86461"
       x1="8.6323884"
       gradientUnits="userSpaceOnUse"
       id="linearGradient7582"
       xlink:href="#linearGradient7568-2-1-3" />
    <linearGradient
       gradientTransform="translate(134.9637,0.79204048)"
       gradientUnits="userSpaceOnUse"
       y2="231.10222"
       x2="122.45031"
       y1="231.10222"
       x1="8.7115889"
       id="linearGradient7618"
       xlink:href="#linearGradient7568-2-1-3" />
    <linearGradient
       gradientTransform="translate(8.3956291,8.3956291)"
       gradientUnits="userSpaceOnUse"
       y2="223.49863"
       x2="249.01842"
       y1="223.49863"
       x1="135.27962"
       id="linearGradient7639"
       xlink:href="#linearGradient7637" />
    <linearGradient
       gradientTransform="translate(-3.9602055,-0.63363282)"
       gradientUnits="userSpaceOnUse"
       y2="247.02223"
       x2="99.638695"
       y1="257.16034"
       x1="117.85562"
       id="linearGradient7666"
       xlink:href="#linearGradient7576-0" />
  </defs>
  <metadata
     id="metadata5">
    <rdf:RDF>
      <cc:Work
         rdf:about="">
        <dc:format>image/svg+xml</dc:format>
        <dc:type
           rdf:resource="http://purl.org/dc/dcmitype/StillImage" />
        <dc:title></dc:title>
      </cc:Work>
    </rdf:RDF>
  </metadata>
  <g
     id="layer1"
     transform="translate(0,-164.57082)">
    <ellipse
       style="opacity:0;fill:#280b0b;fill-opacity:0;stroke:#280b0b;stroke-width:2;stroke-miterlimit:4;stroke-dasharray:none;stroke-opacity:1"
       id="path4544"
       cx="192.48438"
       cy="242.23123"
       rx="8.598958"
       ry="12.435416" />
    <path
       id="path5263"
       d="m 52.426697,253.62191 -4.782138,4.97179 c 2.705,4.09592 5.968021,8.25278 9.852113,12.47779 l 21.290688,0.6718 c 4.27192,-1.10244 7.682563,-3.11782 10.231935,-6.04615 2.583823,-2.96278 4.805907,-6.2184 6.666259,-9.76684 -0.999077,-0.55122 -2.04983,-1.15411 -3.152262,-1.80868 -1.102431,-0.65457 -2.13596,-1.37804 -3.100586,-2.17041 0.137803,1.72255 -0.878498,4.30637 -3.04891,7.75147 -2.135957,3.41064 -4.668105,5.02984 -7.596436,4.85758 -2.756075,0 -5.477701,0.15503 -8.164876,0.46509 -2.652723,0.31006 -5.288221,0.0861 -7.906493,-0.67179 -4.235493,-3.5701 -7.660254,-7.14729 -10.289294,-10.73165 z"
       style="opacity:1;fill:#5c6bc0;fill-opacity:1;stroke:#280b0b;stroke-width:0.79374999;stroke-miterlimit:4;stroke-dasharray:none;stroke-opacity:1" />
    <path
       id="path5261"
       d="m 90.041693,214.50211 -12.125875,12.60904 c 2.91561,0.44776 4.382161,2.28098 4.382161,5.51646 0,3.89296 -1.963703,5.83944 -5.891112,5.83944 -3.219881,0 -5.119288,-1.286 -5.744869,-3.8132 l -2.140955,2.22622 c 0.289864,0.5035 0.595003,1.00257 0.961181,1.48363 1.791451,2.30821 3.979085,3.56567 6.562908,3.77238 4.409723,0.58566 8.268229,-2.46325 11.575521,-9.14673 3.307291,-6.68349 4.49585,-11.79945 3.565673,-15.3479 -0.305216,-0.93745 -0.742842,-2.06393 -1.144633,-3.13934 z"
       style="opacity:1;fill:#5c6bc0;fill-opacity:1;stroke:#280b0b;stroke-width:0.79374999;stroke-miterlimit:4;stroke-dasharray:none;stroke-opacity:1" />
    <path
       transform="matrix(0.26458334,0,0,0.26458334,0,164.57082)"
       id="path5259"
       d="M 380.05469 135.83008 L 377.54688 133.83984 L 93.757812 132.08203 L 129.5 156.30078 L 211.92188 156.49609 C 158.66667 188.78776 134.96875 225.57161 140.82812 266.84766 C 144.61665 293.53571 155.98189 321.0539 174.68555 349.375 L 192.75977 330.58398 C 175.94404 307.65794 167.79427 284.6546 168.36719 261.57422 C 169.27865 224.85547 194.14844 190.28516 242.97656 157.86328 L 266.41406 156.88672 C 298.70573 164.4388 315.3724 175.89714 316.41406 191.26172 C 317.45573 206.49609 306.38802 210.85807 283.21094 204.34766 C 273.05469 204.73828 264.59115 208.70964 257.82031 216.26172 C 251.17969 223.8138 247.85938 232.79818 247.85938 243.21484 C 247.85938 251.66669 250.02641 259.48098 254.1875 266.70898 L 262.2793 258.29492 C 261.70915 255.99167 261.33594 253.49537 261.33594 250.63672 C 261.33594 236.44401 268.88802 229.34766 283.99219 229.34766 C 286.04639 229.34766 287.92539 229.5153 289.69531 229.78711 L 335.52539 182.13086 C 334.64426 179.77247 334.01964 177.78003 333.01562 175.24609 C 330.28125 168.34505 325.26823 161.70443 317.97656 155.32422 L 361.49609 155.12695 L 380.05469 135.83008 z "
       style="opacity:1;fill:#26c6da;fill-opacity:0.99607843;stroke:#020106;stroke-width:2.99999996;stroke-miterlimit:4;stroke-dasharray:none;stroke-opacity:1" />
    <path
       id="path4532"
       d="m 102.61544,201.30123 -4.910293,5.10563 11.274763,-0.0512 z"
       style="opacity:1;fill:#5c6bc0;fill-opacity:1;stroke:#280b0b;stroke-width:0.79374999;stroke-miterlimit:4;stroke-dasharray:none;stroke-opacity:1" />
    <rect
       style="opacity:0;fill:#000000;fill-opacity:0;stroke:#280b0b;stroke-width:2;stroke-miterlimit:4;stroke-dasharray:none;stroke-opacity:1"
       id="rect4546"
       width="20.637499"
       height="12.170834"
       x="1.8520833"
       y="168.94165" />
    <g
       style="stroke-width:0.79375001;stroke-miterlimit:4;stroke-dasharray:none"
       id="g4584"
       transform="translate(3.1176385,-3.3907695)">
      <g
         style="fill:#5c6bc0;fill-opacity:1;stroke-width:0.5951555;stroke-miterlimit:4;stroke-dasharray:none"
         id="g4590"
         transform="matrix(1.3023747,0,0,1.3657482,-21.920348,-93.853137)">
        <g
           style="fill:#5c6bc0;fill-opacity:1;stroke-width:0.5951555;stroke-miterlimit:4;stroke-dasharray:none"
           id="g4568"
           transform="translate(-0.52916667,9.7895833)">
          <rect
             ry="4.1010485"
             y="242.23123"
             x="61.647915"
             height="8.2020969"
             width="19.84375"
             id="rect4559"
             style="opacity:1;fill:#5c6bc0;fill-opacity:1;stroke:#280b0b;stroke-width:0.5951555;stroke-miterlimit:4;stroke-dasharray:none;stroke-opacity:1" />
        </g>
        <text
           xml:space="preserve"
           style="font-style:normal;font-variant:normal;font-weight:bold;font-stretch:normal;font-size:6.3499999px;line-height:1.25;font-family:'Bitstream Charter';-inkscape-font-specification:'Bitstream Charter, Bold';font-variant-ligatures:normal;font-variant-caps:normal;font-variant-numeric:normal;font-feature-settings:normal;text-align:start;letter-spacing:0px;word-spacing:0px;writing-mode:lr-tb;text-anchor:start;fill:#ffffff;fill-opacity:1;stroke:#00000b;stroke-width:0.19838517;stroke-miterlimit:4;stroke-dasharray:none;stroke-opacity:0.7971698;"
           x="64.22097"
           y="257.57706"
           id="text4565"><tspan
             id="tspan4563"
             x="64.22097"
             y="257.57706"
             style="font-style:normal;font-variant:normal;font-weight:bold;font-stretch:normal;font-size:7.05555534px;font-family:'Courier 10 Pitch';-inkscape-font-specification:'Courier 10 Pitch, Bold';font-variant-ligatures:normal;font-variant-caps:normal;font-variant-numeric:normal;font-feature-settings:normal;text-align:start;writing-mode:lr-tb;text-anchor:start;fill:#ffffff;stroke-width:0.19838517;fill-opacity:1;stroke-miterlimit:4;stroke-dasharray:none;stroke:#00000b;stroke-opacity:0.7971698;">gad</tspan></text>
      </g>
    </g>
    <ellipse
       cx="65.660149"
       cy="232.44868"
       rx="56.458107"
       ry="53.131542"
       id="path5937"
       style="opacity:0.46000001;fill:url(#linearGradient7578);fill-opacity:1;stroke:url(#linearGradient7582);stroke-width:0;stroke-miterlimit:4;stroke-dasharray:none;stroke-opacity:1" />
    <ellipse
       ry="52.987507"
       rx="56.710098"
       cy="230.86461"
       cx="63.363243"
       id="path7643"
       style="opacity:0.46000001;vector-effect:none;fill:url(#linearGradient7666);fill-opacity:1;fill-rule:evenodd;stroke-width:0.9593302;stroke-linecap:butt;stroke-linejoin:miter;stroke-miterlimit:4;stroke-dasharray:none;stroke-dashoffset:0;stroke-opacity:1" />
  </g>
</svg>
