<svg xmlns="http://www.w3.org/2000/svg" xmlns:xlink="http://www.w3.org/1999/xlink" width="25" height="25" viewBox="0 0 25 25"><defs><linearGradient id="a"><stop offset="0" stop-color="#24f3d2"/><stop offset=".394" stop-color="#0674f0"/><stop offset=".507" stop-color="#6961b5"/><stop offset=".813" stop-color="#f34660"/><stop offset="1" stop-color="#ee078d"/></linearGradient><linearGradient id="b" x1="868.253" x2="937.656" y1="521.354" y2="588.736" gradientTransform="translate(-695.629 618.831) scale(.80097)" gradientUnits="userSpaceOnUse" xlink:href="#a"/></defs><g fill="#fff" transform="translate(4.5 -1031.862)"><rect width="25" height="25" x="-4.5" y="1031.862" fill="url(#b)" rx="5.283" ry="5.283"/><path d="M 11 5 C 7.692213 5 5.000006 7.6922 5 11 C 5.000006 14.3078 7.692213 17 11 17 C 12.474435 17 13.829101 16.47965 14.875 15.59375 L 20.125 20.84375 A 0.50005 0.50005 0 1 0 20.84375 20.15625 L 15.5625 14.875 C 16.448414 13.8291 16.999997 12.4744 17 11 C 16.999994 7.6922 14.307787 5 11 5 z M 11 6 C 13.767348 6 15.999995 8.2326 16 11 C 15.999995 13.7673 13.767348 16 11 16 C 8.232652 16 6.000005 13.7673 6 11 C 6.000005 8.2326 8.232652 6 11 6 z " color="#000" font-family="sans-serif" font-weight="400" overflow="visible" transform="translate(-4.5 1031.862)" style="text-indent:0;text-align:start;line-height:normal;text-transform:none;block-progression:tb"/></g></svg>