<?xml version="1.0" encoding="iso-8859-1"?>
<!-- Generator: Adobe Illustrator 23.0.2, SVG Export Plug-In . SVG Version: 6.00 Build 0)  -->
<svg version="1.1" xmlns="http://www.w3.org/2000/svg" xmlns:xlink="http://www.w3.org/1999/xlink" x="0px" y="0px"
	 viewBox="0 0 500 421" style="enable-background:new 0 0 500 421;" xml:space="preserve">
<g id="BACKGROUND">
</g>
<g id="DESIGNED_BY_FREEPIK">
	<g>
		<g>
			<path style="fill:#CCE9FF;" d="M317.39,185.093l7.631,5.942l7.216,11.757c0.216,0.352-0.07,0.799-0.481,0.749
				c-0.173-0.022-0.33-0.049-0.426-0.082c-0.345-0.122-2.424-2.325-4.405-4.375c-1.977-2.049-3.532-2.021-6.199-4.316
				c-2.664-2.291-4.021-4.297-4.021-4.297l-3.028-2.359L317.39,185.093z"/>
			<path style="fill:#CCE9FF;" d="M306.685,129.512c-0.031-0.298-1.694-2.767-2.424-3.84c-0.174-1.682-0.351-3.183-0.456-4.359
				c-0.096-1.056-1.045-1.822-2.096-1.688l-8.728,0.384l-2.608,13.087l-3.932,6.095l7.509,5.196l1.884-7.547
				c0,0,10.851,5.124,8.903-3.286c-0.185-0.803-0.019-1.653-0.056-2.473C305.508,130.563,306.708,129.764,306.685,129.512z"/>
			<path style="fill:#CCE9FF;" d="M302.8,125.723c0,0.37-0.218,0.669-0.479,0.669c-0.264,0-0.477-0.299-0.477-0.669
				c0-0.369,0.214-0.667,0.477-0.667C302.582,125.055,302.8,125.354,302.8,125.723z"/>
			<path style="fill:#CCE9FF;" d="M290.374,133.095c0,0,1.264-0.153,2.035-0.69c0.765-0.538,2.035-2.495,2.035-2.495
				s-1.076-1.229-0.808-3.07c0.27-1.843,1.806-2.533,3.146-0.999c0,0,0.037-1.228,0.616-1.804c0.575-0.575,0.614-2.916,0.229-3.378
				c0,0,4.277,0.155,5.132-0.862c0.856-1.018,1.357-2.015,1.357-2.015s-6.026-0.884-8.56-1.19c-2.531-0.307-5.412,0.576-5.486,1.65
				c0,0-1.959-0.192-2.458,2.879C287.113,124.191,290.374,133.095,290.374,133.095z"/>
			<path style="fill:#CCE9FF;" d="M295.834,151.147l3.015,20.753l21.959,14.03l-3.448,6.678l-24.604-14.669
				c-1.545-0.923-2.306-2.748-1.871-4.496l4.359-17.464L295.834,151.147z"/>
			<path style="fill:#CCE9FF;" d="M312.536,245.229c0,0-0.882,2.648-0.996,4.183c-0.115,1.536,3.453,2.702,3.453,2.702l7.275-2.625
				c0,0-1.325-1.067-1.441-1.877c-0.117-0.809-0.422-2.536-0.422-2.536L312.536,245.229z"/>
			<path style="fill:#CCE9FF;" d="M311.539,246.558l6.908-39.056l6.333,11.053l-2.513,28.749
				C322.267,247.305,316.143,247.538,311.539,246.558z"/>
			<path style="fill:#CCE9FF;" d="M311.136,248.693c0,0-1.049,4.091-0.612,7.514h4.937c0,0,0.877-0.648,2.005-0.711
				c1.127-0.061,4.132,0.711,6.386,0.711c2.257,0,10.398,0,10.398,0s0-3.185-2.066-4.123c-2.068-0.94-7.328-1.941-8.141-2.818
				c-0.816-0.877-1.23-1.129-1.711-1.045c-0.484,0.083-1.107,2.087-4.552,1.961C315.588,250.101,311.136,248.693,311.136,248.693z"
				/>
			<path style="fill:#CCE9FF;" d="M323.628,247.303v3.261c0,0,5.948,1.997,8.06,1.459c2.112-0.538,3.414-1.804,3.414-1.804
				l-1.628-0.992c0,0-2.671-1.696-2.671-3.039C330.804,244.845,323.628,247.303,323.628,247.303z"/>
			<path style="fill:#CCE9FF;" d="M280.387,192.303c0,0-0.86,13.434,3.06,15.717c1.431,0.834,28.037,0.159,32.576,0.038
				c0.376-0.01,0.694,0.266,0.74,0.637l5.505,39.335l11.206-0.922c0,0-4.589-46.437-4.589-47.972c0-1.534-0.49-2.848-6.138-3.992
				c-6.834-1.381-28.556-3.454-28.556-3.454L280.387,192.303z"/>
			<path style="fill:#CCE9FF;" d="M286.441,139.19c0,0-5.678,5.449-5.678,11.437c0,5.987-1.307,40.219-1.232,40.988
				c0.079,0.768,4.298,1.237,8.52,1.237s16.063,2.218,16.063-1.161c0-3.991-4.857-31.008-4.857-35.614
				c0-4.607-1.379-9.442-3.991-11.59C292.658,142.336,286.441,139.19,286.441,139.19z"/>
			<polygon style="fill:#CCE9FF;" points="291.724,152.182 294.616,176.204 290.93,173.23 			"/>
			<path style="fill:#CCE9FF;" d="M298.661,173.832l-4.335,0.861c-0.68,0.134-1.321-0.361-1.36-1.053l-1.243-21.458
				c-0.122-2.158-1.973-3.806-4.132-3.681l0,0c-2.159,0.124-3.806,1.975-3.682,4.133l0.444,27.484
				c0.046,0.763,0.283,1.513,0.731,2.131c0.767,1.059,1.958,1.634,3.183,1.634c0.256,0,0.511-0.024,0.764-0.074l9.323-1.934
				C298.443,179.417,298.553,176.639,298.661,173.832z"/>
			<path style="fill:#CCE9FF;" d="M323.056,248.977c0,0-1.125,3.538-0.687,6.96h5.075c0,0,0.877-0.649,2.005-0.709
				c1.127-0.063,4.132,0.709,6.387,0.709c2.254,0,10.396,0,10.396,0s0-2.027-2.068-2.966c-2.067-0.938-7.325-1.941-8.142-2.817
				c-0.814-0.877-1.291-1.732-1.774-1.65c-0.481,0.083-1.106,2.087-4.553,1.962C327.506,250.387,323.056,248.977,323.056,248.977z"
				/>
			<g>
				<rect x="336.946" y="175.609" style="fill:#CCE9FF;" width="13.355" height="0.595"/>
				<rect x="323.59" y="175.609" style="fill:#CCE9FF;" width="13.356" height="0.595"/>
			</g>
			<g>
				<rect x="375.243" y="175.609" style="fill:#CCE9FF;" width="13.355" height="0.595"/>
				<rect x="361.889" y="175.609" style="fill:#CCE9FF;" width="13.354" height="0.595"/>
			</g>
			<g>
				<path style="fill:#CCE9FF;" d="M373.087,250.22c0,0,3.377-5.797,4.375-7.946c0.997-2.148,4.089-39.035,4.718-39.834
					c0.635-0.797,5.564-3.378,5.564-3.378l1.462,3.453c0,0-0.54,11.973-1.688,15.889c-1.153,3.916-3.907,16.335-4.338,20.033
					c-0.148,1.274,0.191,4.376,0.191,4.376s-3.376,8.441-5.372,9.518c-1.996,1.073-5.449,1.458-5.449,1.458L373.087,250.22z"/>
				<path style="fill:#CCE9FF;" d="M374.159,251.945c0,0,1.071,0.267,4.143-2.994c1.289-1.368,3.723-6.191,4.74-6.586
					c1.017-0.399,1.63,0.6,1.939,1.481c0.306,0.884,0.651,2.879,0,4.76c-0.653,1.879-0.731,7.253-0.731,7.253h-1.536
					c0,0-0.306-5.526-0.534-5.566c-0.233-0.038-2.882,1.229-3.34,2.917c-0.462,1.688-0.499,2.495-1.038,2.649
					c-0.537,0.153-13.449,0.037-13.779,0c-0.326-0.038,0.363-1.085,4.069-2.802c3.647-1.688,4.297-3.408,4.759-3.262
					C373.314,249.942,373.006,252.212,374.159,251.945z"/>
				<path style="fill:#CCE9FF;" d="M434.027,148.4l-2.534-5.344l-0.614-16.351l-7.25,0.342c-1.033-0.037-1.944,0.653-2.19,1.654
					c-0.352,1.444-0.722,3.39-1.006,5.376l-1.813,2.718c-0.169,0.256-0.077,0.561,0.205,0.682l0.884,0.374
					c0.182,0.077,0.29,0.258,0.281,0.453c-0.111,1.888-0.046,3.449,0.315,4.138c0.624,1.186,5.73,1.718,5.73,1.718l-0.375,11.071
					L434.027,148.4z"/>
				<path style="fill:#CCE9FF;" d="M422.695,134.122c0,0.37-0.214,0.667-0.479,0.667c-0.262,0-0.477-0.297-0.477-0.667
					c0-0.368,0.215-0.669,0.477-0.669C422.481,133.454,422.695,133.754,422.695,134.122z"/>
				<path style="fill:#CCE9FF;" d="M397.928,192.69l-7.884,0.46l-10.614,8.366c0,0,1.011,0.461,2.73,0
					c1.723-0.46,7.884-2.455,7.884-2.455l9.504-2.764L397.928,192.69z"/>
				<path style="fill:#CCE9FF;" d="M422.491,165.438l-6.525,15.124l-18.518,11.109c-0.472,0.182-0.704,0.717-0.513,1.187
					l1.762,3.686l22.258-10.073l5.297-10.537L422.491,165.438z"/>
				<path style="fill:#CCE9FF;" d="M380.542,176.163l-1.628-1.099c-0.253-0.17-0.182-0.566,0.12-0.633l17.051-4.118l13.182,2.938
					l-1.496,5.294l-11.379-3.663c0,0-2.762,1.535-4.835,1.611C389.485,176.57,380.542,176.163,380.542,176.163z"/>
				<path style="fill:#CCE9FF;" d="M391.312,197.487c0,0-8.406,2.647-8.633,3.108c-0.233,0.461-1.038,0.461,0,4.374
					c1.034,3.916,9.9,34.887,9.668,37.765c-0.229,2.879-5.871,9.671-5.871,9.671v1.728c0,0,2.886,1.15,5.875-2.417
					c2.989-3.571,6.675-8.29,6.675-8.29s-1.843-1.612-2.188-4.376c-0.346-2.762-0.461-20.494-1.497-23.832
					c-0.782-2.517-2.608-5.363-3.462-6.61c-0.204-0.296-0.022-0.699,0.333-0.748l10.5-1.392L391.312,197.487z"/>
				<path style="fill:#CCE9FF;" d="M389.239,251.945c0,0,1.076,0.267,4.144-2.994c1.29-1.368,3.724-6.191,4.74-6.586
					c1.016-0.399,1.632,0.6,1.94,1.481c0.306,0.884,0.651,2.879,0,4.76c-0.654,1.879-0.731,7.253-0.731,7.253h-1.533
					c0,0-0.309-5.526-0.539-5.566c-0.229-0.038-2.878,1.229-3.34,2.917c-0.459,1.688-0.496,2.495-1.034,2.649
					c-0.539,0.153-13.453,0.037-13.78,0c-0.328-0.038,0.363-1.085,4.07-2.802c3.646-1.688,4.3-3.408,4.759-3.262
					C388.397,249.942,388.089,252.212,389.239,251.945z"/>
				<path style="fill:#CCE9FF;" d="M428.961,149.705c0,0-8.781,10.995-9.937,14.488c-0.278,0.847-0.329,7.191,1.45,10.087
					c0.718,1.169,0.987,2.556,0.759,3.908l-1.944,11.469l-29.245,7.022l5.874,14.966c0,0,3.384-3.856,6.147-3.626
					c2.763,0.23,31.86,0,31.86,0s4.131-4.432,4.131-10.65c0-4.013-1.728-10.139-2.949-13.975c-0.741-2.314-0.701-4.805,0.114-7.091
					c1.7-4.755,4.45-12.94,4.45-16.122c0-4.604-5.874-12.435-5.874-12.435S431.264,148.324,428.961,149.705z"/>
				<path style="fill:#CCE9FF;" d="M429.867,160.027l-2.854,9.273c-2.567,2.229-6.163,1.032-6.163,1.032l3.866,6.439l-2.577,2.577
					l-1.289,5.152l10.304,3.863c0.784,0.349,2.471-0.437,2.576-1.287l2.577-28.339L429.867,160.027z"/>
				<g>
					<path style="fill:#CCE9FF;" d="M429.279,185.335c-0.407,0-0.814-0.063-1.205-0.19l-26.789-7.253
						c-0.558-0.18-0.865-0.777-0.683-1.334l1.761-5.438c0.18-0.554,0.773-0.859,1.326-0.681l20.786,5.311
						c0.888,0.288,1.829-0.283,1.984-1.207l3.065-18.397c0.357-2.131,2.374-3.573,4.505-3.217l0,0
						c2.132,0.355,3.574,2.371,3.22,4.505l-4.105,24.63c-0.189,1.124-0.856,2.109-1.827,2.701
						C430.693,185.143,429.988,185.335,429.279,185.335z"/>
				</g>
				<path style="fill:#CCE9FF;" d="M439.67,138.99c-1.903-2.994-1.348-8.232-2.371-10.247c-1.026-2.015-3.962-4.837-9.087-4.548
					c-5.125,0.288-8.287,2.59-9.036,5.18c-0.749,2.591,1.552,2.696,1.552,2.696s0.508-2.659,1.294-4.107c0,0,1.716,4.75,4.963,5.96
					c0,0,2.264,10.016,1.63,13.067c-0.632,3.052-1.63,4.318-1.63,4.318s4.049,1.727,8.079,1.554c4.03-0.172,4.086-1.438,4.086-1.438
					"/>
			</g>
			<g>
				<path style="fill:#CCE9FF;" d="M353.791,254.38c0,0,2.06-1.261,2.925-1.447c0.865-0.187,1.561-0.63,1.561-0.63l0.933-2.824
					h4.986c0,0,0.166,6.644,0,6.702c-0.166,0.057-11.403,0-11.403,0S353.099,254.784,353.791,254.38z"/>
				<path style="fill:#CCE9FF;" d="M374.749,254.38c0,0-2.063-1.261-2.927-1.447c-0.863-0.187-1.56-0.63-1.56-0.63l-0.934-2.824
					h-4.983c0,0-0.168,6.644,0,6.702c0.166,0.057,11.401,0,11.401,0S375.44,254.784,374.749,254.38z"/>
			</g>
			<g>
				<path style="fill:#CCE9FF;" d="M348.846,167.438c1.849-0.452,3.22-2.113,3.22-4.098v-9.134h-8.444v9.134
					c0,1.985,1.372,3.646,3.219,4.098c0.28,0.067,0.485,0.311,0.485,0.602v6.371c0,0.232-0.146,0.438-0.363,0.515l-2.504,0.904
					c-0.099,0.036-0.164,0.129-0.164,0.235c0,0.136,0.111,0.247,0.249,0.247h3.299h3.303c0.137,0,0.249-0.111,0.249-0.247
					c0-0.106-0.066-0.198-0.166-0.235l-2.506-0.904c-0.216-0.077-0.362-0.283-0.362-0.515v-6.371
					C348.361,167.749,348.567,167.505,348.846,167.438z"/>
				<path style="fill:#CCE9FF;" d="M343.968,160.117v3.223c0,1.791,1.214,3.339,2.956,3.762c0.216,0.054,1.625,0.054,1.841,0l0,0
					c1.742-0.423,2.954-1.971,2.954-3.762v-3.223H343.968z"/>
				<path style="fill:#CCE9FF;" d="M349.734,160.117v3.223c0,1.765-1.182,3.291-2.883,3.741c0.024,0.006,0.046,0.015,0.073,0.021
					c0.216,0.054,1.625,0.054,1.841,0l0,0c1.742-0.423,2.954-1.971,2.954-3.762v-3.223H349.734z"/>
				<rect x="349.734" y="154.55" style="fill:#CCE9FF;" width="1.985" height="5.566"/>
			</g>
			<g>
				<g>
					<polygon style="fill:#CCE9FF;" points="316.377,255.937 305.724,213.895 310.977,213.992 319.949,255.931 					"/>
				</g>
				<g>
					<polygon style="fill:#CCE9FF;" points="269.706,255.937 265.158,255.937 270.647,213.531 276.681,214.703 					"/>
				</g>
				<path style="fill:#CCE9FF;" d="M312.113,208.021h-37.146l-10.096-46.525c-0.266-1.604-1.653-2.78-3.281-2.778l0,0
					c-2.023,0.003-3.572,1.799-3.279,3.803l9.451,50.029c0.299,1.901,1.94,3.3,3.863,3.3h40.488c0.871,0,1.575-0.706,1.575-1.575
					v-4.681C313.689,208.726,312.985,208.021,312.113,208.021z"/>
			</g>
			<g>
				<g>
					<polygon style="fill:#CCE9FF;" points="396.011,255.937 406.662,213.895 401.41,213.992 392.437,255.931 					"/>
				</g>
				<g>
					<polygon style="fill:#CCE9FF;" points="442.677,255.937 447.228,255.937 441.739,213.531 435.704,214.703 					"/>
				</g>
				<path style="fill:#CCE9FF;" d="M400.27,208.021h37.149l10.096-46.525c0.265-1.604,1.653-2.78,3.281-2.778l0,0
					c2.023,0.003,3.574,1.799,3.279,3.803l-9.447,50.029c-0.305,1.901-1.943,3.3-3.868,3.3H400.27c-0.868,0-1.573-0.706-1.573-1.575
					v-4.681C398.698,208.726,399.403,208.021,400.27,208.021z"/>
			</g>
			<g>
				<rect x="318.434" y="178.728" style="fill:#CCE9FF;" width="73.279" height="77.203"/>
				<path style="fill:#CCE9FF;" d="M394.346,176.204h-73.39c-1.396,0-2.522,1.131-2.522,2.524c0,1.395,1.126,2.524,2.522,2.524
					h73.39c1.394,0,2.522-1.128,2.522-2.524C396.869,177.335,395.74,176.204,394.346,176.204z"/>
				
					<rect x="356.077" y="252.463" transform="matrix(-1 -1.224647e-16 1.224647e-16 -1 715.3014 508.4)" style="fill:#CCE9FF;" width="3.148" height="3.474"/>
			</g>
			<g>
				<path style="fill:#CCE9FF;" d="M366.053,167.438c-1.845-0.452-3.217-2.113-3.217-4.098v-9.134h8.444v9.134
					c0,1.985-1.372,3.646-3.217,4.098c-0.283,0.067-0.486,0.311-0.486,0.602v6.371c0,0.232,0.145,0.438,0.361,0.515l2.504,0.904
					c0.101,0.036,0.165,0.129,0.165,0.235c0,0.136-0.113,0.247-0.248,0.247h-3.3h-3.303c-0.136,0-0.248-0.111-0.248-0.247
					c0-0.106,0.067-0.198,0.165-0.235l2.504-0.904c0.219-0.077,0.364-0.283,0.364-0.515v-6.371
					C366.54,167.749,366.336,167.505,366.053,167.438z"/>
				<path style="fill:#CCE9FF;" d="M370.931,160.117v3.223c0,1.791-1.213,3.339-2.954,3.762c-0.216,0.054-1.625,0.054-1.843,0l0,0
					c-1.74-0.423-2.954-1.971-2.954-3.762v-3.223H370.931z"/>
				<path style="fill:#CCE9FF;" d="M365.168,160.117v3.223c0,1.765,1.184,3.291,2.883,3.741c-0.024,0.006-0.049,0.015-0.073,0.021
					c-0.216,0.054-1.625,0.054-1.843,0l0,0c-1.74-0.423-2.954-1.971-2.954-3.762v-3.223H365.168z"/>
				<rect x="363.182" y="154.55" style="fill:#CCE9FF;" width="1.986" height="5.566"/>
			</g>
		</g>
		<g>
			<g>
				<path style="fill:#CCE9FF;" d="M171.33,170.257h-9.671l-12.917,4.844c-0.388,0.145-0.435,0.674-0.081,0.888
					c0.151,0.09,0.29,0.165,0.389,0.198c0.348,0.115,3.34-0.347,6.161-0.749c2.822-0.402,4.029,0.576,7.543,0.402
					c3.51-0.172,5.812-0.92,5.812-0.92h3.838L171.33,170.257z"/>
				<path style="fill:#CCE9FF;" d="M192.778,129.512c0.031-0.298,1.694-2.767,2.424-3.84c0.174-1.682,0.351-3.183,0.456-4.359
					c0.096-1.056,1.046-1.822,2.096-1.688l8.728,0.384l2.609,13.087l3.934,6.095l-7.512,5.196l-1.884-7.547
					c0,0-8.894,1.789-8.903-3.286c0-0.825,0.019-1.653,0.056-2.473C193.955,130.563,192.755,129.764,192.778,129.512z"/>
				<path style="fill:#CCE9FF;" d="M196.665,125.723c0,0.37,0.215,0.669,0.477,0.669c0.262,0,0.477-0.299,0.477-0.669
					c0-0.369-0.215-0.667-0.477-0.667C196.88,125.055,196.665,125.354,196.665,125.723z"/>
				<path style="fill:#CCE9FF;" d="M209.09,133.095c0,0-1.266-0.153-2.036-0.69c-0.765-0.538-2.035-2.495-2.035-2.495
					s1.076-1.229,0.807-3.07c-0.269-1.843-1.805-2.533-3.145-0.999c0,0-0.037-1.228-0.616-1.804
					c-0.575-0.575-0.614-2.916-0.229-3.378c0,0-4.277,0.155-5.132-0.862c-0.856-1.018-1.356-2.015-1.356-2.015
					s6.026-0.884,8.56-1.19c2.531-0.307,5.412,0.576,5.486,1.65c0,0,1.959-0.192,2.458,2.879
					C212.352,124.191,209.09,133.095,209.09,133.095z"/>
				<path style="fill:#CCE9FF;" d="M202.259,150.741l-8.194,20.495l-25.945-2.419l-1.382,7.387l28.425,3.538
					c1.787,0.223,3.507-0.751,4.237-2.398l7.288-16.456L202.259,150.741z"/>
				<path style="fill:#CCE9FF;" d="M186.927,245.229c0,0,0.882,2.648,0.996,4.183c0.115,1.536-3.453,2.702-3.453,2.702l-7.275-2.625
					c0,0,1.326-1.067,1.442-1.877c0.115-0.809,0.424-2.536,0.424-2.536L186.927,245.229z"/>
				<path style="fill:#CCE9FF;" d="M187.925,246.558l-6.909-39.056l-6.333,11.053l2.513,28.749
					C177.196,247.305,183.319,247.538,187.925,246.558z"/>
				<path style="fill:#CCE9FF;" d="M188.327,248.693c0,0,1.049,4.091,0.612,7.514h-4.937c0,0-0.877-0.648-2.003-0.711
					c-1.129-0.061-4.135,0.711-6.388,0.711c-2.257,0-10.398,0-10.398,0s0-3.185,2.066-4.123c2.068-0.94,7.33-1.941,8.141-2.818
					c0.816-0.877,1.23-1.129,1.711-1.045c0.484,0.083,1.107,2.087,4.555,1.961C183.874,250.101,188.327,248.693,188.327,248.693z"/>
				<path style="fill:#CCE9FF;" d="M175.835,247.303v3.261c0,0-5.949,1.997-8.061,1.459c-2.11-0.538-3.414-1.804-3.414-1.804
					l1.628-0.992c0,0,2.671-1.696,2.671-3.039C168.659,244.845,175.835,247.303,175.835,247.303z"/>
				<path style="fill:#CCE9FF;" d="M184.703,170.257h-9.675l-12.916,4.844c-0.388,0.145-0.436,0.674-0.081,0.888
					c0.151,0.09,0.292,0.165,0.389,0.198c0.348,0.115,3.34-0.347,6.159-0.749c2.822-0.402,4.032,0.576,7.543,0.402
					c3.512-0.172,5.815-0.92,5.815-0.92h3.837L184.703,170.257z"/>
				<path style="fill:#CCE9FF;" d="M219.077,192.303c0,0,0.859,13.434-3.061,15.717c-1.431,0.834-28.037,0.159-32.576,0.038
					c-0.376-0.01-0.694,0.266-0.738,0.637l-5.507,39.335l-11.206-0.922c0,0,4.589-46.437,4.589-47.972
					c0-1.534,0.49-2.848,6.137-3.992c6.835-1.381,28.557-3.454,28.557-3.454L219.077,192.303z"/>
				<path style="fill:#CCE9FF;" d="M213.024,139.19c0,0,5.678,5.449,5.678,11.437c0,5.987,1.304,40.219,1.23,40.988
					c-0.078,0.768-4.299,1.237-8.52,1.237c-4.222,0-10.053,0.53-10.053-2.849c0-3.992-1.153-29.32-1.153-33.926
					c0-4.607,1.38-9.442,3.993-11.59C206.805,142.336,213.024,139.19,213.024,139.19z"/>
				<polygon style="fill:#CCE9FF;" points="207.739,152.182 204.846,176.204 208.533,173.23 				"/>
				<path style="fill:#CCE9FF;" d="M200.804,173.832l4.332,0.861c0.68,0.134,1.321-0.361,1.36-1.053l1.243-21.458
					c0.124-2.158,1.975-3.806,4.132-3.681l0,0c2.159,0.124,3.806,1.975,3.682,4.133l-0.444,27.484
					c-0.046,0.763-0.283,1.513-0.731,2.131c-0.765,1.059-1.958,1.634-3.183,1.634c-0.253,0-0.509-0.024-0.764-0.074l-9.323-1.934
					C201.019,179.417,200.911,176.639,200.804,173.832z"/>
				<g>
					<path style="fill:#CCE9FF;" d="M210.069,181.252c1.226,0,2.416-0.575,3.184-1.632c0.447-0.621,0.683-1.369,0.729-2.135
						l1.57-27.177c0.124-2.158-1.523-4.009-3.682-4.134l0,0c-2.158-0.124-4.008,1.524-4.132,3.682l-1.243,21.457
						c-0.04,0.691-0.681,1.188-1.36,1.053l-19.504-3.872c-0.604-0.12-1.188,0.271-1.308,0.873l-1.092,5.5
						c-0.12,0.602,0.273,1.187,0.874,1.307l25.2,5.003C209.561,181.228,209.814,181.252,210.069,181.252z"/>
				</g>
				<path style="fill:#CCE9FF;" d="M176.408,248.977c0,0,1.124,3.538,0.686,6.96h-5.075c0,0-0.877-0.649-2.003-0.709
					c-1.129-0.063-4.135,0.709-6.39,0.709c-2.254,0-10.395,0-10.395,0s0-2.027,2.067-2.966c2.067-0.938,7.326-1.941,8.141-2.817
					c0.814-0.877,1.291-1.732,1.774-1.65c0.483,0.083,1.106,2.087,4.553,1.962C171.958,250.387,176.408,248.977,176.408,248.977z"/>
			</g>
			<g>
				<rect x="149.161" y="175.609" style="fill:#CCE9FF;" width="13.355" height="0.595"/>
				<rect x="162.516" y="175.609" style="fill:#CCE9FF;" width="13.356" height="0.595"/>
			</g>
			<g>
				<rect x="110.864" y="175.609" style="fill:#CCE9FF;" width="13.355" height="0.595"/>
				<rect x="124.219" y="175.609" style="fill:#CCE9FF;" width="13.354" height="0.595"/>
			</g>
			<g>
				<path style="fill:#CCE9FF;" d="M126.376,250.22c0,0-3.377-5.797-4.374-7.946c-0.998-2.148-4.089-39.035-4.72-39.834
					c-0.633-0.797-5.564-3.378-5.564-3.378l-1.459,3.453c0,0,0.537,11.973,1.687,15.889c1.152,3.916,3.906,16.335,4.337,20.033
					c0.15,1.274-0.191,4.376-0.191,4.376s3.376,8.441,5.373,9.518c1.995,1.073,5.449,1.458,5.449,1.458L126.376,250.22z"/>
				<path style="fill:#CCE9FF;" d="M125.305,251.945c0,0-1.072,0.267-4.144-2.994c-1.289-1.368-3.723-6.191-4.74-6.586
					c-1.017-0.399-1.629,0.6-1.939,1.481c-0.306,0.884-0.651,2.879,0,4.76c0.655,1.879,0.731,7.253,0.731,7.253h1.536
					c0,0,0.306-5.526,0.534-5.566c0.233-0.038,2.882,1.229,3.34,2.917c0.462,1.688,0.499,2.495,1.038,2.649
					c0.537,0.153,13.448,0.037,13.779,0c0.326-0.038-0.363-1.085-4.068-2.802c-3.648-1.688-4.299-3.408-4.76-3.262
					C126.148,249.942,126.458,252.212,125.305,251.945z"/>
				<path style="fill:#CCE9FF;" d="M65.436,148.4l2.534-5.344l0.614-16.351l7.25,0.342c1.033-0.037,1.945,0.653,2.189,1.654
					c0.352,1.444,0.722,3.39,1.006,5.376l1.815,2.718c0.17,0.256,0.076,0.561-0.206,0.682l-0.884,0.374
					c-0.182,0.077-0.291,0.258-0.282,0.453c0.111,1.888,0.046,3.449-0.315,4.138c-0.624,1.186-5.729,1.718-5.729,1.718l0.374,11.071
					L65.436,148.4z"/>
				<path style="fill:#CCE9FF;" d="M76.77,134.122c0,0.37,0.214,0.667,0.476,0.667c0.262,0,0.477-0.297,0.477-0.667
					c0-0.368-0.215-0.669-0.477-0.669C76.984,133.454,76.77,133.754,76.77,134.122z"/>
				<path style="fill:#CCE9FF;" d="M101.534,192.69l7.884,0.46l10.614,8.366c0,0-1.011,0.461-2.73,0
					c-1.723-0.46-7.884-2.455-7.884-2.455l-9.504-2.764L101.534,192.69z"/>
				<path style="fill:#CCE9FF;" d="M76.971,165.438l6.525,15.124l18.518,11.109c0.472,0.182,0.704,0.717,0.514,1.187l-1.763,3.686
					l-22.258-10.073l-5.295-10.537L76.971,165.438z"/>
				<path style="fill:#CCE9FF;" d="M108.153,197.487c0,0,8.404,2.647,8.632,3.108c0.231,0.461,1.036,0.461,0,4.374
					c-1.035,3.916-9.901,34.887-9.67,37.765c0.23,2.879,5.874,9.671,5.874,9.671v1.728c0,0-2.888,1.15-5.878-2.417
					c-2.988-3.571-6.675-8.29-6.675-8.29s1.843-1.612,2.188-4.376c0.346-2.762,0.461-20.494,1.499-23.832
					c0.781-2.517,2.607-5.363,3.46-6.61c0.203-0.296,0.022-0.699-0.333-0.748l-10.5-1.392L108.153,197.487z"/>
				<path style="fill:#CCE9FF;" d="M110.223,251.945c0,0-1.076,0.267-4.142-2.994c-1.291-1.368-3.725-6.191-4.741-6.586
					c-1.016-0.399-1.632,0.6-1.94,1.481c-0.306,0.884-0.651,2.879,0,4.76c0.654,1.879,0.731,7.253,0.731,7.253h1.534
					c0,0,0.307-5.526,0.537-5.566c0.23-0.038,2.881,1.229,3.34,2.917c0.459,1.688,0.496,2.495,1.035,2.649
					c0.538,0.153,13.451,0.037,13.779,0c0.328-0.038-0.364-1.085-4.068-2.802c-3.647-1.688-4.301-3.408-4.761-3.262
					C111.065,249.942,111.374,252.212,110.223,251.945z"/>
				<path style="fill:#CCE9FF;" d="M70.501,149.705c0,0,8.784,10.995,9.937,14.488c0.278,0.847,0.329,7.191-1.45,10.087
					c-0.718,1.169-0.987,2.556-0.759,3.908l1.944,11.469l29.245,7.022l-5.873,14.966c0,0-3.385-3.856-6.148-3.626
					c-2.763,0.23-31.857,0-31.857,0s-4.134-4.432-4.134-10.65c0-4.013,1.728-10.139,2.948-13.975
					c0.742-2.314,0.702-4.805-0.114-7.091c-1.699-4.755-4.447-12.94-4.447-16.122c0-4.604,5.871-12.435,5.871-12.435
					S68.199,148.324,70.501,149.705z"/>
				<path style="fill:#CCE9FF;" d="M69.595,160.027l2.855,9.273c2.566,2.229,6.162,1.032,6.162,1.032l-3.865,6.439l2.576,2.577
					l1.289,5.152l-10.303,3.863c-0.783,0.349-2.472-0.437-2.577-1.287l-2.576-28.339L69.595,160.027z"/>
				<path style="fill:#CCE9FF;" d="M59.795,138.99c1.9-2.994,1.345-8.232,2.369-10.247c1.026-2.015,3.962-4.837,9.087-4.548
					c5.125,0.288,8.289,2.59,9.036,5.18c0.751,2.591-1.552,2.696-1.552,2.696s-0.508-2.659-1.292-4.107c0,0-1.717,4.75-4.964,5.96
					c0,0-2.264,10.016-1.629,13.067c0.632,3.052,1.629,4.318,1.629,4.318s-4.048,1.727-8.079,1.554
					c-4.028-0.172-4.086-1.438-4.086-1.438"/>
			</g>
			<g>
				<path style="fill:#CCE9FF;" d="M145.673,254.38c0,0-2.062-1.261-2.927-1.447c-0.865-0.187-1.56-0.63-1.56-0.63l-0.934-2.824
					h-4.986c0,0-0.166,6.644,0,6.702c0.169,0.057,11.403,0,11.403,0S146.365,254.784,145.673,254.38z"/>
				<path style="fill:#CCE9FF;" d="M124.713,254.38c0,0,2.063-1.261,2.927-1.447c0.862-0.187,1.56-0.63,1.56-0.63l0.934-2.824h4.983
					c0,0,0.168,6.644,0,6.702c-0.164,0.057-11.398,0-11.398,0S124.022,254.784,124.713,254.38z"/>
			</g>
			<g>
				<path style="fill:#CCE9FF;" d="M150.616,167.438c-1.848-0.452-3.22-2.113-3.22-4.098v-9.134h8.444v9.134
					c0,1.985-1.372,3.646-3.216,4.098c-0.282,0.067-0.488,0.311-0.488,0.602v6.371c0,0.232,0.146,0.438,0.363,0.515l2.505,0.904
					c0.098,0.036,0.164,0.129,0.164,0.235c0,0.136-0.111,0.247-0.25,0.247h-3.299h-3.303c-0.137,0-0.25-0.111-0.25-0.247
					c0-0.106,0.067-0.198,0.166-0.235l2.506-0.904c0.216-0.077,0.363-0.283,0.363-0.515v-6.371
					C151.102,167.749,150.896,167.505,150.616,167.438z"/>
				<path style="fill:#CCE9FF;" d="M155.494,160.117v3.223c0,1.791-1.214,3.339-2.956,3.762c-0.216,0.054-1.625,0.054-1.841,0l0,0
					c-1.739-0.423-2.952-1.971-2.952-3.762v-3.223H155.494z"/>
				<path style="fill:#CCE9FF;" d="M149.728,160.117v3.223c0,1.765,1.184,3.291,2.883,3.741c-0.024,0.006-0.046,0.015-0.073,0.021
					c-0.216,0.054-1.625,0.054-1.841,0l0,0c-1.739-0.423-2.952-1.971-2.952-3.762v-3.223H149.728z"/>
				<rect x="147.744" y="154.55" style="fill:#CCE9FF;" width="1.984" height="5.566"/>
			</g>
			<g>
				<g>
					<polygon style="fill:#CCE9FF;" points="183.085,255.937 193.739,213.895 188.487,213.992 179.513,255.931 					"/>
				</g>
				<g>
					<polygon style="fill:#CCE9FF;" points="229.756,255.937 234.304,255.937 228.816,213.531 222.782,214.703 					"/>
				</g>
				<path style="fill:#CCE9FF;" d="M187.349,208.021h37.146l10.096-46.525c0.266-1.604,1.653-2.78,3.281-2.778l0,0
					c2.023,0.003,3.572,1.799,3.281,3.803l-9.452,50.029c-0.301,1.901-1.939,3.3-3.863,3.3h-40.489
					c-0.869,0-1.575-0.706-1.575-1.575v-4.681C185.774,208.726,186.48,208.021,187.349,208.021z"/>
			</g>
			<g>
				<g>
					<polygon style="fill:#CCE9FF;" points="103.451,255.937 92.8,213.895 98.052,213.992 107.028,255.931 					"/>
				</g>
				<g>
					<polygon style="fill:#CCE9FF;" points="56.785,255.937 52.234,255.937 57.723,213.531 63.758,214.703 					"/>
				</g>
				<path style="fill:#CCE9FF;" d="M99.192,208.021H62.043l-10.096-46.525c-0.264-1.604-1.653-2.78-3.278-2.778l0,0
					c-2.026,0.003-3.577,1.799-3.281,3.803l9.448,50.029c0.303,1.901,1.943,3.3,3.867,3.3h40.489c0.868,0,1.573-0.706,1.573-1.575
					v-4.681C100.765,208.726,100.06,208.021,99.192,208.021z"/>
			</g>
			<g>
				
					<rect x="107.749" y="178.728" transform="matrix(-1 -1.224647e-16 1.224647e-16 -1 288.7805 434.6591)" style="fill:#CCE9FF;" width="73.282" height="77.203"/>
				<path style="fill:#CCE9FF;" d="M105.116,176.204h73.39c1.396,0,2.525,1.131,2.525,2.524c0,1.395-1.129,2.524-2.525,2.524h-73.39
					c-1.391,0-2.522-1.128-2.522-2.524C102.594,177.335,103.725,176.204,105.116,176.204z"/>
				<rect x="140.24" y="252.463" style="fill:#CCE9FF;" width="3.146" height="3.474"/>
			</g>
			<g>
				<path style="fill:#CCE9FF;" d="M133.409,167.438c1.848-0.452,3.217-2.113,3.217-4.098v-9.134h-8.444v9.134
					c0,1.985,1.372,3.646,3.22,4.098c0.28,0.067,0.484,0.311,0.484,0.602v6.371c0,0.232-0.143,0.438-0.361,0.515l-2.504,0.904
					c-0.101,0.036-0.164,0.129-0.164,0.235c0,0.136,0.111,0.247,0.247,0.247h3.3h3.303c0.136,0,0.248-0.111,0.248-0.247
					c0-0.106-0.066-0.198-0.164-0.235l-2.506-0.904c-0.219-0.077-0.363-0.283-0.363-0.515v-6.371
					C132.923,167.749,133.128,167.505,133.409,167.438z"/>
				<path style="fill:#CCE9FF;" d="M128.531,160.117v3.223c0,1.791,1.214,3.339,2.954,3.762c0.216,0.054,1.625,0.054,1.844,0l0,0
					c1.739-0.423,2.952-1.971,2.952-3.762v-3.223H128.531z"/>
				<path style="fill:#CCE9FF;" d="M134.295,160.117v3.223c0,1.765-1.181,3.291-2.883,3.741c0.024,0.006,0.049,0.015,0.073,0.021
					c0.216,0.054,1.625,0.054,1.844,0l0,0c1.739-0.423,2.952-1.971,2.952-3.762v-3.223H134.295z"/>
				<rect x="134.295" y="154.55" style="fill:#CCE9FF;" width="1.986" height="5.566"/>
			</g>
			<path style="fill:#CCE9FF;" d="M58.13,139.589c0,2.649,2.146,4.797,4.798,4.797s4.799-2.148,4.799-4.797
				c0-2.65-2.147-4.799-4.799-4.799S58.13,136.938,58.13,139.589z"/>
			<path style="fill:#CCE9FF;" d="M52.444,147.747c0,3.14,2.544,5.686,5.686,5.686c3.139,0,5.686-2.545,5.686-5.686
				c0-3.139-2.547-5.685-5.686-5.685C54.988,142.062,52.444,144.609,52.444,147.747z"/>
			<path style="fill:#CCE9FF;" d="M51.456,157.332c0,4.606,3.734,8.338,8.339,8.338c4.604,0,8.339-3.732,8.339-8.338
				c0-4.604-3.734-8.337-8.339-8.337C55.19,148.995,51.456,152.728,51.456,157.332z"/>
		</g>
		<path style="fill:#CCE9FF;" d="M12.855,255.76l463.939-5.366c0,0,36.5-3.165,17.947,25.989
			c-18.551,29.158-117.209,40.659-173.36,65.049c-57.992,25.186-95.07-12.01-154.262-14.777
			c-59.189-2.771-130.165-20.141-147.295-38.861C-3.477,262.329-6.801,256.575,12.855,255.76z"/>
		<g>
			<path style="fill-rule:evenodd;clip-rule:evenodd;fill:#0B4870;" d="M233.24,261.954l-3.476,4.092l-5.147,4.525
				c-0.527,0.372-0.763,2.884,0.151,2.78l5.114,0.608c1.628,0.193,3.404-0.402,4.909-1.134c1.096-0.534,2.181-1.455,3.555-2.3
				l0.538,1.173l4.896-1.61l0.251-3.514c0.75-3.758-0.632-4.431-1.019-7.08l-8.451-0.122L233.24,261.954z"/>
			<path style="fill-rule:evenodd;clip-rule:evenodd;fill:#0B4870;" d="M258.614,260.406l-0.171,9.913c0,0,2.943,4.977,4.635,5.678
				c1.843,0.768,6.552,0.635,7.952-0.793c1.303-1.323,0.602-7.402,0.602-7.402l-3.947-8.274L258.614,260.406z"/>
			<g>
				<path style="fill:#0E538C;" d="M231.665,155.906c0,0,22.758-3.956,33.16-0.219c0.433,0.155,0.85,0.323,1.249,0.51
					c0,0,0.023,0.174,0.069,0.507c0.105,0.768,0.325,2.371,0.614,4.551c0.046,0.368,0.097,0.753,0.153,1.147
					c1.479,11.208,0.54,27.495,0.965,35.445c0.553,10.428,0.681,11.912,0.681,13.87c0.005,5.288,0.456,49.794,0.456,49.794
					s-6.634,1.688-11.492,0c0,0-1.735-44.146-2.731-47.415c-0.995-3.265-4.336-37.755-5.579-37.898
					c-1.244-0.141-5.244,36.178-5.508,40.475c-0.261,4.294,1.282,44.151-0.141,44.86c-1.418,0.708-9.777,0.782-10.202-0.637
					c0,0-0.392-40.515-0.392-44.776c0-4.259-2.726-37.445-2.605-38.869C230.363,177.251,229.974,166.828,231.665,155.906z"/>
			</g>
			<polygon style="fill:#EBBAA0;" points="201.019,126.757 199.534,123.016 198.644,117.986 196.56,117.986 196.041,123.016 
				192.696,120.959 190.541,117.986 188.237,117.986 189.796,120.737 185.634,117.986 183.034,117.986 193.364,126.757 
				200.576,130.622 			"/>
			<path style="fill:#F2F2F2;" d="M199.476,132.726l23.902,8.884c1.234,0.46,2.618-0.099,3.189-1.286l5.764-12.066l0.084-0.181
				l0.315-0.657c-0.046-1.286-0.092-2.487-0.136-3.562c-0.136-3.176-0.264-5.281-0.264-5.281c-0.279-3.78-0.479-7.315-0.596-10.631
				c-0.077,0.054-0.146,0.103-0.215,0.154l-0.01,0.003c-0.453,0.316-0.801,0.594-0.934,0.797c-0.499,0.747-8.198,18.756-9.831,22.58
				c-0.166,0.396-0.619,0.585-1.021,0.428l-17.333-6.811c-0.793-0.31-1.689,0.081-1.989,0.877l-1.822,4.773
				C198.273,131.542,198.677,132.429,199.476,132.726z"/>
			<path style="fill:#D3D3D3;" d="M219.726,131.292v28.088c0,0.389-0.317,0.704-0.706,0.704h-9.649
				c-0.389,0-0.704-0.316-0.704-0.704v-31.482c0-0.974,0.988-1.637,1.889-1.269l8.318,3.396
				C219.388,130.233,219.726,130.736,219.726,131.292z"/>
			<path style="fill:#0B4870;" d="M189.775,100.195c0,1.243,1.006,2.252,2.252,2.252c1.241,0,2.252-1.008,2.252-2.252
				c0-1.244-1.011-2.252-2.252-2.252C190.781,97.943,189.775,98.951,189.775,100.195z"/>
			<path style="fill:#2A94F4;" d="M192.028,101.119c8.799,0,15.935,7.134,15.935,15.935H176.09
				C176.09,108.254,183.226,101.119,192.028,101.119z"/>
			<polygon style="fill:#0E538C;" points="195.857,115.577 218.426,115.577 216.642,117.986 195.857,117.986 167.411,117.986 
				165.63,115.577 			"/>
			<g>
				<path style="fill:#F2F2F2;" d="M260.213,100.712l1.413,0.536c-0.325-0.131-0.63-0.247-0.919-0.356
					C260.538,100.829,260.37,100.767,260.213,100.712z"/>
				<path style="fill:#F2F2F2;" d="M242.036,102.732l0.973,5.862l3.847,33.177l6.209-24.372l6.931-16.768
					c-0.092-0.036-0.184-0.067-0.264-0.099c-0.059-0.019-0.113-0.04-0.164-0.059c-0.151-0.059-0.274-0.104-0.358-0.135
					c-0.87-0.315-1.477-0.509-1.648-0.517c-0.115-0.01-0.422,0.004-0.862,0.036c-0.046,0.683-0.056,1.021-0.056,1.021
					c-1.625,1.161-6.913,1.813-6.913,1.813s-2.777,0.671-2.862-0.809c-0.002-0.005-0.002-0.005,0-0.01
					c-0.02-0.059-0.018-0.113,0.01-0.171c0.067-0.157,0.225-0.621,0.315-1.016c-0.266,0.026-0.417,0.04-0.417,0.04
					s-0.694,0.239-1.61,0.607l-0.008,0.005c-0.399,0.157-0.834,0.346-1.282,0.549C243.324,102.139,242.699,102.426,242.036,102.732z
					"/>
			</g>
			<g>
				<path style="fill:#F2F2F2;" d="M267.943,159.088c0.187,0.765,0.317,1.234,0.358,1.301
					C268.183,159.961,268.063,159.521,267.943,159.088z M266.187,150.262c6.24-3.194,20.214-10.576,20.01-12.601
					c-0.187-1.894-11.062-30.551-12.654-31.694c-0.453-0.324-2.337-1.076-4.53-1.912l-1.236,20.564c0,0-2.216-6.644,1.236,0.621
					c1.042,2.193,3.604,5.362,4.883,8.173c0.952,2.074-3.88,5.034-8.392,7.445C265.253,143.163,265.634,146.771,266.187,150.262z"/>
			</g>
			<g>
				<path style="fill:#F1B99E;" d="M246.868,101.873c-0.002,0.005-0.002,0.005,0,0.01c0.085,1.48,2.862,3.347,2.862,3.347
					s5.288-3.19,6.913-4.351c0,0,0.01-0.337,0.056-1.021c0.112-1.485,0.432-4.59,1.336-9.339c0.353-1.854-10.775,4.885-10.775,4.885
					s0.031,0.648,0.054,1.53c0.015,0.463,0.023,0.99,0.015,1.515c0,0.185,0,0.369-0.005,0.553c-0.01,0.491-0.033,0.963-0.072,1.359
					c-0.01,0.094-0.033,0.207-0.059,0.324c-0.09,0.396-0.248,0.859-0.315,1.016C246.866,101.733,246.861,101.792,246.868,101.873z"
					/>
				<path style="fill:#F1B99E;" d="M246.868,101.873c-0.008-0.081-0.002-0.14,0.01-0.171
					C246.85,101.76,246.848,101.814,246.868,101.873z"/>
			</g>
			<g>
				<path style="fill:#F1B99E;" d="M241.402,78.344c0,0-2.447,4.533-1.236,5.238c1.003,0.583-1.172,5.029-1.456,5.756
					c-0.284,0.728,1.814,1.255,2.26,1.724c0.445,0.466,1.766,6.222,3.494,6.396c1.728,0.175,9.511-2.533,11.633-4.738
					c2.119-2.205,3.86-12.16,2.444-16.359C257.124,72.16,245.714,70.428,241.402,78.344z"/>
			</g>
			<g>
				<path style="fill:#FCD2B1;" d="M240.483,80.323c0,0-2.634-7.515,1.684-8.975c5.503-1.859,13.672,2.196,14.614,2.438
					c0.942,0.244,6.286,0.61,3.588,9.994c-2.316,8.058-2.641,8.397-2.641,8.397s-1.73-4.666-2.708-5.38
					c-1.533-1.11-4.888-0.843-4.888-0.843s1.6-4.245-0.898-4.847C246.735,80.507,246.428,84.105,240.483,80.323z"/>
			</g>
			<g>
				<path style="fill:#EEA886;" d="M252.794,83.524c0.22-0.583,0.932-3.087,3.082-1.616c2.147,1.469-1.339,6.188-1.712,6.247
					C253.787,88.218,250.941,88.423,252.794,83.524z"/>
			</g>
			<path style="fill:#A77860;" d="M247.329,98.45c0,0.186-0.003,0.371-0.005,0.555c6.365-2.137,7.599-5.353,7.599-5.353
				c-1.984,1.405-7.607,3.281-7.607,3.281C247.327,97.397,247.334,97.922,247.329,98.45z"/>
			<path style="fill:#F2F2F2;" d="M262.374,101.536c0.031,0.014,0.059,0.023,0.079,0.036c0.159,0.064,0.325,0.125,0.494,0.194
				c0.171,0.067,0.348,0.135,0.532,0.207c0.028,0.009,0.059,0.018,0.085,0.031c0.972,0.369,2.099,0.793,3.235,1.214L262.374,101.536
				z"/>
			<path style="fill:#2A94F4;" d="M230.45,161.869c0.294,0.081,1.134,0.963,3.005,1.868c0.346,0.166,0.729,0.332,1.152,0.497
				c2.933,1.135,7.742,2.062,15.497,1.072c1.646-0.207,3.43-0.504,5.354-0.899c0,0,9.564-1.949,12.469-3.743
				c0.146-0.091,0.271-0.181,0.379-0.265c0,0-0.005-0.005-0.005-0.009c-0.041-0.068-0.171-0.536-0.358-1.301
				c-0.005-0.022-0.01-0.044-0.015-0.067c-0.438-1.828-1.182-5.233-1.74-8.76c-0.553-3.491-0.934-7.099-0.683-9.403
				c0.051-0.436,0.102-0.9,0.159-1.39c0.538-4.746,1.392-11.787,1.991-14.378c0.041-0.181,0.082-0.338,0.123-0.472l1.236-20.564
				l-1.039-0.396c-0.23-0.081-0.458-0.171-0.683-0.257c-0.161-0.062-0.33-0.12-0.491-0.184c-1.136-0.422-2.263-0.845-3.235-1.214
				c-0.026-0.014-0.056-0.022-0.085-0.031c-0.184-0.072-0.361-0.14-0.532-0.207c-0.169-0.068-0.335-0.13-0.494-0.194
				c-0.02-0.013-0.049-0.022-0.079-0.036c-0.033-0.009-0.059-0.022-0.095-0.036l-0.653-0.251l-1.413-0.536l-0.217-0.081
				l-6.931,16.768l-4.197,15.78l-5.859-24.585l-0.973-5.862c-2.114,0.976-4.65,2.151-6.729,3.132
				c-0.01,0.004-0.013,0.009-0.023,0.009c-0.008,0.004-0.018,0.009-0.026,0.014c-0.015,0.004-0.023,0.013-0.036,0.018
				c-0.028,0.013-0.059,0.032-0.095,0.049c-0.338,0.184-1.121,0.612-1.945,1.098c-0.143,0.081-0.289,0.166-0.433,0.257
				c-0.174,0.107-0.353,0.216-0.52,0.319c-0.171,0.109-0.34,0.217-0.496,0.32c0.118,3.316,0.317,6.852,0.596,10.631
				c0,0,0.128,2.105,0.264,5.281c0.044,1.075,0.09,2.276,0.136,3.562l-0.315,0.657l-0.084,0.181
				c0.169,7.045,0.228,14.725-0.046,21.028c-0.504,4.111-1.147,8.453-1.804,12.394c0,0.004-0.005,0.004-0.005,0.004
				C230.473,161.747,230.457,161.806,230.45,161.869z"/>
			<path style="fill:#F7F7F7;" d="M251.017,102.692"/>
			<g>
				<path style="fill:#0B4870;" d="M250.72,104.674c0,0,1.651-2.326,3.263-2.185c2.309,0.203,1.866,5.274,0.448,5.469
					c-1.656,0.227-3.711-1.752-3.711-1.752S251.125,105.213,250.72,104.674z"/>
				<path style="fill:#0B4870;" d="M249.21,104.674c0,0-1.651-2.326-3.266-2.185c-2.309,0.203-1.866,5.274-0.45,5.469
					c1.658,0.227,3.716-1.752,3.716-1.752S248.803,105.213,249.21,104.674z"/>
				<path style="fill:#0B4870;" d="M248.563,105.372c0,0.854,0.694,1.548,1.548,1.548l0,0c0.855,0,1.549-0.694,1.549-1.548l0,0
					c0-0.856-0.694-1.548-1.549-1.548l0,0C249.256,103.824,248.563,104.517,248.563,105.372L248.563,105.372z"/>
			</g>
		</g>
	</g>
</g>
</svg>
